# xmcd
#
# Track frame offsets:
#	150
#	19892
#	34400
#	49037
#	72132
#	85342
#	104345
#	128570
#	140695
#	161977
#	181112
#	196277
#	216960
#	234925
#
# Disc length: 3577 seconds
#
# Revision: 1
# Processed by: cddbd v1.5.2PL0 Copyright (c) Steve Scherf et al.
# Submitted via: EasyCDDAExtractor 16.0.6.1
#
DISCID=c40df70e
DTITLE=John Denver - The Wildlife Concert - Cd 01
DYEAR=1995
DGENRE=Country
TTITLE0=Rocky mountain high
TTITLE1=Rhymes and reasons
TTITLE2=Country roads
TTITLE3=Back home again
TTITLE4=I guess he'd rather be in Colorado
TTITLE5=Matthew
TTITLE6=Sunshine on my shoulders
TTITLE7=You say the battle is over
TTITLE8=Eagles and horses
TTITLE9=Darcy farrow
TTITLE10=Whispering Jesseµ
TTITLE11=Mr and my uncle
TTITLE12=Wild Montana skies
TTITLE13=Medley: Leaving on a jet plane - Goodbye again
EXTD=
EXTT0=
EXTT1=
EXTT2=
EXTT3=
EXTT4=
EXTT5=
EXTT6=
EXTT7=
EXTT8=
EXTT9=
EXTT10=
EXTT11=
EXTT12=
EXTT13=
PLAYORDER=
